<svg width="65" height="65" viewBox="0 0 65 65" fill="none" xmlns="http://www.w3.org/2000/svg">
<path d="M45.4387 42.6128L46.426 38.9354H18.574L19.5612 42.6128H45.4387Z" fill="#E957C9"/>
<path d="M38.363 61C36.141 61 34.3333 59.1861 34.3333 56.9585V48.1291C34.3333 47.1159 33.5111 46.2903 32.5 46.2903C31.4889 46.2903 30.6667 47.1159 30.6667 48.1291V56.9585C30.6667 59.187 28.8581 61 26.637 61C24.8183 61 23.2178 59.7699 22.7448 58.0084L16.9487 36.4165C16.8745 36.1407 16.9322 35.8456 17.1064 35.6185C17.2797 35.3914 17.5473 35.2581 17.8333 35.2581H47.1666C47.4526 35.2581 47.7203 35.3914 47.8945 35.6185C48.0677 35.8456 48.1264 36.1407 48.0522 36.4165L42.2561 58.0084C41.7831 59.7699 40.1826 61 38.363 61ZM32.5 44.4516C34.5222 44.4516 36.1667 46.101 36.1667 48.1291V56.9585C36.1667 58.173 37.1521 59.1613 38.363 59.1613C39.3548 59.1613 40.2266 58.4902 40.4841 57.5313L45.9704 37.0968H19.0296L24.5149 57.5313C24.7725 58.4902 25.6442 59.1613 26.637 59.1613C27.8479 59.1613 28.8333 58.173 28.8333 56.9585V48.1291C28.8333 46.101 30.4778 44.4516 32.5 44.4516Z" fill="#E957C9"/>
<path d="M44.4167 37.0968C43.9098 37.0968 43.5 36.6858 43.5 36.1774V33.1638C43.5 30.2632 41.1478 27.9032 38.2548 27.9032C37.2355 27.9032 36.2693 28.1836 35.4608 28.7132C33.3791 30.0775 31.6209 30.0775 29.5383 28.7132C28.7298 28.1836 27.7636 27.9032 26.7443 27.9032C23.8522 27.9032 21.4991 30.2623 21.4991 33.1638V36.1774C21.4991 36.6858 21.0893 37.0968 20.5824 37.0968C20.0755 37.0968 19.6658 36.6858 19.6658 36.1774V33.1638C19.6658 29.2492 22.8411 26.0645 26.7443 26.0645C28.1211 26.0645 29.4347 26.4479 30.5411 27.1742C31.2689 27.6513 31.9463 27.9032 32.5 27.9032C33.0537 27.9032 33.7311 27.6513 34.4589 27.1742C35.5653 26.4479 36.8789 26.0645 38.2558 26.0645C42.1589 26.0645 45.3343 29.2492 45.3343 33.1638V36.1774C45.3333 36.6858 44.9236 37.0968 44.4167 37.0968Z" fill="#E957C9"/>
<path d="M44.4167 31.4573C44.0582 31.4573 43.7182 31.2458 43.5706 30.8928C43.3753 30.4239 43.5953 29.8861 44.0628 29.6893C46.0062 28.8748 47.1667 27.8626 47.1667 26.9837C47.1667 25.2627 43.0224 23.1298 36.0888 22.5368C35.5846 22.4936 35.2106 22.0495 35.2537 21.543C35.2958 21.0373 35.7313 20.6539 36.2446 20.7054C42.1287 21.2074 49 23.1527 49 26.9837C49 28.1834 48.2658 29.9192 44.7705 31.3865C44.655 31.4352 44.5349 31.4573 44.4167 31.4573Z" fill="#E957C9"/>
<path d="M20.5833 31.4576C20.4651 31.4576 20.345 31.4355 20.2295 31.3868C16.7342 29.9195 16 28.1838 16 26.984C16 23.1531 22.8713 21.2077 28.7554 20.7058C29.2651 20.6552 29.7032 21.0377 29.7463 21.5433C29.7894 22.0499 29.4154 22.4939 28.9112 22.5371C21.9776 23.1301 17.8333 25.263 17.8333 26.984C17.8333 27.8629 18.9938 28.8751 20.9372 29.6897C21.4047 29.8864 21.6247 30.4243 21.4294 30.8931C21.2827 31.2462 20.9417 31.4576 20.5833 31.4576Z" fill="#E957C9"/>
<path d="M48.0833 27.9032C47.5764 27.9032 47.1667 27.4921 47.1667 26.9837L47.1667 12.4626C47.1667 8.81006 44.204 5.83871 40.5621 5.83871C39.0028 5.83871 37.56 6.33608 36.4994 7.23888C35.4434 8.13985 34.0977 8.59676 32.5 8.59676C30.9022 8.59676 29.5566 8.13985 28.5006 7.23888C27.4409 6.33608 25.9981 5.83871 24.4379 5.83871C20.796 5.83871 17.8333 8.81006 17.8333 12.4626V26.984C17.8333 27.4924 17.4236 27.9032 16.9167 27.9032C16.4097 27.9032 16 27.4924 16 26.984V12.4626C16 7.79601 19.7849 4 24.4379 4C26.4326 4 28.2962 4.65274 29.6867 5.83871C30.4027 6.44824 31.3487 6.75806 32.4991 6.75806C33.6495 6.75806 34.5955 6.44824 35.3114 5.83871C36.7029 4.65274 38.5665 4 40.5612 4C45.2142 4 48.9991 7.79601 48.9991 12.4626L49 26.9837C49.0009 27.4921 48.5902 27.9032 48.0833 27.9032Z" fill="#E957C9"/>
<path d="M20.5833 13.3821C20.0764 13.3821 19.6667 12.9711 19.6667 12.4627C19.6667 9.82419 21.8071 7.6775 24.4379 7.6775C24.9448 7.6775 25.3546 8.08845 25.3546 8.59685C25.3546 9.10526 24.9448 9.51621 24.4379 9.51621C22.8172 9.51621 21.5 10.8382 21.5 12.4627C21.5 12.9711 21.0902 13.3821 20.5833 13.3821Z" fill="#E957C9"/>
<path d="M44.4166 13.3821C43.9097 13.3821 43.5 12.9711 43.5 12.4627C43.5 10.8373 42.1818 9.51621 40.5621 9.51621C40.0551 9.51621 39.6454 9.10526 39.6454 8.59685C39.6454 8.08845 40.0551 7.6775 40.5621 7.6775C43.1929 7.6775 45.3333 9.82419 45.3333 12.4627C45.3333 12.9711 44.9236 13.3821 44.4166 13.3821Z" fill="#E957C9"/>
<path d="M39.7508 17.4106C39.6023 17.0824 39.2769 16.8709 38.9166 16.8709H35.25V11.3548C35.25 10.8464 34.8402 10.4355 34.3333 10.4355H30.6666C30.1597 10.4355 29.75 10.8464 29.75 11.3548V16.8709H26.0833C25.723 16.8709 25.3976 17.0824 25.2491 17.4106C25.0997 17.7388 25.1565 18.124 25.393 18.3952L31.8097 25.75C31.9848 25.9505 32.236 26.0645 32.5 26.0645C32.764 26.0645 33.0151 25.9505 33.1902 25.75L39.6069 18.3952C39.8434 18.124 39.9002 17.7388 39.7508 17.4106Z" fill="#E957C9"/>
</svg>
